Coordinates
version=1
nRows=11
nColumns=36
inDegrees=yes

Units are S.I. units (second, meters, Newtons, ...)
If the header above contains a line with 'inDegrees', this indicates whether rotational values are in degrees (yes) or radians (no).

endheader
time	pelvis_tilt	pelvis_list	pelvis_rotation	pelvis_tx	pelvis_ty	pelvis_tz	hip_flexion_r	hip_adduction_r	hip_rotation_r	knee_angle_r	knee_angle_r_beta	ankle_angle_r	subtalar_angle_r	mtp_angle_r	hip_flexion_l	hip_adduction_l	hip_rotation_l	knee_angle_l	knee_angle_l_beta	ankle_angle_l	subtalar_angle_l	mtp_angle_l	lumbar_extension	lumbar_bending	lumbar_rotation	arm_flex_r	arm_add_r	arm_rot_r	elbow_flex_r	pro_sup_r	arm_flex_l	arm_add_l	arm_rot_l	elbow_flex_l	pro_sup_l
      3.42083330	      5.17599448	      0.39577632	      1.07122929	      0.45489913	      0.86937376	     -0.04074398	     11.16112517	     -0.93451305	     -4.75917693	     47.73239888	      0.83308752	     19.08870064	    -12.36947641	     -7.49999987	     14.51158394	     -3.47104455	     -1.08962029	     50.21111995	      0.87634936	     19.15546507	     -2.12847015	     -7.49999987	    -20.80247374	      1.25529448	     -0.64670659	      2.63862653	     -7.00488768	      9.31529639	     29.60093782	     64.17316954	     -0.23508860	     -8.12985519	     14.26684016	     33.10228284	     77.92915720
      3.42500000	      5.03949723	      0.39775179	      1.14059038	      0.45549701	      0.87231923	     -0.04075932	     10.96064694	     -0.90745746	     -4.75122585	     47.17353341	      0.82333348	     18.64500338	    -12.20585183	     -7.49999987	     14.19300390	     -3.36545291	     -0.95211608	     49.33005574	      0.86097189	     18.81532404	     -2.34727295	     -7.49999987	    -20.45614477	      1.33448304	     -0.65802748	      2.52656643	     -7.12472007	      9.26648844	     29.73551493	     64.09650454	     -0.37145905	     -8.14952726	     14.30270791	     33.20584147	     77.73817007
      3.42916670	      4.82121026	      0.39214590	      1.14630715	      0.45787878	      0.87468523	     -0.03851105	     10.54732105	     -0.71136577	     -4.75715148	     46.09227438	      0.80446195	     18.40453444	    -12.09646733	     -7.49999987	     13.75428586	     -3.39368537	     -0.88479584	     48.24181656	      0.84197854	     18.60300734	     -2.29508785	     -7.49999987	    -19.78387330	      1.28642623	     -0.64715320	      2.42738066	     -7.12664313	      9.30416279	     29.40670188	     64.03867113	     -0.58498045	     -8.19816177	     14.34196129	     33.02199231	     77.69662894
      3.43333330	      4.47170387	      0.37573418	      1.13514133	      0.45603585	      0.87917223	     -0.03938853	     10.52212686	     -0.61498781	     -4.85240259	     45.11672674	      0.78743543	     17.86978511	    -11.88031167	     -7.49999987	     13.67385512	     -3.38269146	     -0.99021221	     47.21385377	      0.82403720	     18.06222562	     -2.38459028	     -7.49999987	    -19.23572942	      1.33188230	     -0.61594758	      2.29514513	     -7.21546682	      9.32334792	     29.44434130	     64.05206599	     -0.79035121	     -8.25416144	     14.37373995	     33.08892878	     77.77631848
      3.43750000	      4.02725304	      0.36068840	      1.13535368	      0.45658872	      0.87798820	     -0.03967491	     10.75488084	     -0.61812717	     -4.94774474	     44.51121801	      0.77686731	     17.86687676	    -11.80275240	     -7.49999987	     13.86086743	     -3.32994545	     -0.99340817	     46.60159015	      0.81335118	     17.86400370	     -2.76283279	     -7.49999987	    -18.53003599	      1.35988179	     -0.58794670	      1.84171638	     -7.41052195	      9.28696813	     30.33512770	     63.87273614	     -1.22240393	     -8.39018957	     14.36559845	     33.92511227	     77.09817509
      3.44166670	      4.39371659	      0.31003215	      1.19593490	      0.45723155	      0.88102562	     -0.03968307	      9.83202434	     -0.47324846	     -5.05993419	     43.40990119	      0.75764570	     16.49655805	    -12.31091634	     -7.49999987	     13.01046277	     -3.33560332	     -1.03429289	     45.55012745	      0.79499970	     16.97405734	     -3.53785739	     -7.49999987	    -18.96916246	      1.51759982	     -0.62375865	      2.22272628	     -7.42204384	      9.24930817	     29.73321617	     63.82554775	     -0.94965450	     -8.34462174	     14.45633162	     33.35052797	     77.15690248
      3.44583330	      4.16726085	      0.34320199	      1.25847913	      0.45760569	      0.88265616	     -0.03998501	      9.61089842	     -0.50446382	     -5.05812007	     42.44414779	      0.74079013	     16.10329586	    -12.58387558	     -7.49999987	     12.92687020	     -3.22769301	     -1.04880083	     44.92623880	      0.78411079	     16.37685255	     -4.17595614	     -7.49999987	    -18.43520546	      1.52200069	     -0.61423812	      2.07586376	     -7.51675587	      9.30304168	     29.69601546	     63.82376683	     -1.02869288	     -8.48409217	     14.87266446	     33.25448958	     77.62588145
      3.45000000	      3.85438585	      0.32838029	      1.20270353	      0.45733721	      0.88656825	     -0.03739238	      9.45418360	     -0.41582529	     -5.27724807	     41.52082881	      0.72467517	     15.83817362	    -12.48783176	     -7.49999987	     12.88902929	     -3.31565425	     -1.14859877	     44.15495565	      0.77064936	     15.86540777	     -3.96636989	     -7.49999987	    -17.97290485	      1.46141705	     -0.59286572	      1.98354843	     -7.53282765	      9.31518226	     29.77593753	     63.83204792	     -1.14304429	     -8.55967693	     14.87910150	     33.34290843	     77.69680905
      3.45416670	      3.82205736	      0.27555598	      1.21447163	      0.45674431	      0.88776157	     -0.03701271	      8.97989181	     -0.24779586	     -5.43594738	     40.40002086	      0.70511338	     15.39479380	    -12.38913700	     -7.49999987	     12.45129042	     -3.43259481	     -1.15299002	     43.10099934	      0.75225435	     15.71346560	     -3.54795471	     -7.49999987	    -17.98010456	      1.47934523	     -0.64233523	      2.01628092	     -7.57626353	      9.26383560	     29.97497895	     63.66551641	     -1.23176260	     -8.68797996	     14.86149173	     33.64718639	     77.33536305
      3.45833330	      3.70891909	      0.24461148	      1.13918568	      0.45794165	      0.88818946	     -0.03557338	      8.75377193	     -0.15110047	     -5.63858163	     39.70440188	      0.69297254	     15.23550243	    -12.45854213	     -7.49999987	     12.23187088	     -3.59151615	     -1.27734107	     42.44014157	      0.74072021	     15.22033380	     -3.34889700	     -7.49999987	    -17.72997394	      1.36416300	     -0.59053396	      1.90511242	     -7.60152561	      9.30634634	     30.24586700	     63.63419833	     -1.38624954	     -8.80771525	     14.87957390	     33.93388757	     77.30619614
      3.46250000	      3.46875319	      0.25180807	      1.06086603	      0.45898696	      0.88897942	     -0.03605978	      8.63041598	     -0.11016040	     -5.71853814	     38.98568153	      0.68042850	     14.91558099	    -12.72506947	     -7.49999987	     12.13770769	     -3.65107400	     -1.52357927	     41.78478345	      0.72928205	     14.88497432	     -3.34040599	     -7.49999987	    -17.29082952	      1.34237581	     -0.59046853	      1.87147709	     -7.64051044	      9.35727411	     30.24191190	     63.57002150	     -1.52414906	     -8.94666740	     14.87991978	     34.02049329	     77.24005014
